<svg preserveAspectRatio="none" width="100%" height="100%" overflow="visible" style="display: block;" viewBox="0 0 66.78 51.66" fill="none" xmlns="http://www.w3.org/2000/svg">
<path id="&#226;&#128;&#156;" opacity="0.4" d="M18.54 0L28.44 7.92001C22.68 10.98 16.02 18.54 14.4 25.02C14.94 24.66 16.56 24.48 18 24.48C24.84 24.48 30.24 29.7 30.24 37.44C30.24 45.18 23.76 51.66 16.02 51.66C7.56 51.66 0 45 0 33.3C0 19.8 7.38 7.74001 18.54 0ZM55.08 0L65.16 7.92001C59.4 10.98 52.56 18.54 51.12 25.02C51.66 24.66 53.28 24.48 54.72 24.48C61.38 24.48 66.78 29.7 66.78 37.44C66.78 45.18 60.48 51.66 52.56 51.66C44.1 51.66 36.72 45 36.72 33.3C36.72 19.8 43.92 7.74001 55.08 0Z" fill="var(--fill-0, #12ACF7)"/>
</svg>
