<svg width="19.999" height="19.999" viewBox="0 0 20.2999 19.9991" fill="none" xmlns="http://www.w3.org/2000/svg" aria-hidden="true" preserveAspectRatio="xMidYMid meet">
<g id="X">
<path id="X_2" d="M7.76433 11.1177L0.0484208 0.794922C0.0811375 0.794922 0.103385 0.794922 0.130867 0.794922C2.06334 0.794922 3.99755 0.794922 5.93351 0.794922C5.95349 0.795974 5.97305 0.801034 5.99104 0.809802C6.00903 0.81857 6.02506 0.830867 6.0382 0.84596C7.62518 2.966 9.21085 5.08649 10.7952 7.2074L11.0569 7.56074L11.6223 6.94567L16.3204 1.87719C16.6406 1.52821 16.9608 1.18316 17.281 0.842034C17.3022 0.815988 17.3327 0.799118 17.366 0.794922C17.9209 0.794922 18.4758 0.794922 19.0294 0.794922C19.0426 0.79632 19.0557 0.798505 19.0686 0.801465L11.8448 8.60899L19.9991 19.5089H19.9022C17.9768 19.5089 16.0517 19.5089 14.1271 19.5089C14.1 19.5104 14.073 19.5046 14.0488 19.4922C14.0247 19.4797 14.0043 19.4611 13.9897 19.4382C12.1977 17.0425 10.4052 14.6463 8.61235 12.2497L8.54954 12.1686L7.8795 12.8923L3.77813 17.3221C3.11681 18.0366 2.45506 18.7507 1.79288 19.4644C1.76864 19.4897 1.73614 19.5055 1.70127 19.5089C1.14639 19.5089 0.591518 19.5089 0.0379514 19.5089H0L7.76433 11.1203M17.4158 18.2212L16.7169 17.2855L12.0398 11.0222C9.82636 8.0672 7.61471 5.11179 5.4048 2.15594C5.38995 2.13307 5.36926 2.11459 5.34488 2.1024C5.32049 2.0902 5.29329 2.08474 5.26609 2.08658C4.42068 2.08658 3.57528 2.08658 2.72988 2.08658H2.63173C2.65267 2.11799 2.66445 2.13762 2.67754 2.15594L3.35935 3.07201L7.92661 9.17041C10.1662 12.1646 12.4049 15.1589 14.6427 18.1531C14.6557 18.1756 14.6751 18.1937 14.6984 18.2051C14.7217 18.2165 14.7479 18.2207 14.7736 18.2172C15.2146 18.2172 15.6569 18.2172 16.0979 18.2172H17.4223" fill="var(--fill-0, #F7F7F7)"/>
</g>
</svg>
