<svg width="19.999" height="20" viewBox="0 0 19.9991 20" fill="none" xmlns="http://www.w3.org/2000/svg" aria-hidden="true" preserveAspectRatio="xMidYMid meet">
<path id="Path 699" d="M9.9991 1.80143C12.669 1.80143 12.9858 1.81142 14.0403 1.85952C14.6744 1.86716 15.3025 1.98381 15.8971 2.20438C16.3283 2.37074 16.7199 2.62553 17.0468 2.95235C17.3736 3.27917 17.6284 3.67079 17.7947 4.10201C18.0152 4.69662 18.1318 5.32469 18.1396 5.9588C18.1877 7.01334 18.1977 7.32916 18.1977 10C18.1977 12.6708 18.1877 12.9867 18.1396 14.0412C18.1318 14.6753 18.0152 15.3034 17.7947 15.898C17.6284 16.3292 17.3736 16.7208 17.0468 17.0477C16.7199 17.3745 16.3283 17.6293 15.8971 17.7956C15.3025 18.0162 14.6744 18.1329 14.0403 18.1405C12.9858 18.1886 12.6699 18.1986 9.9991 18.1986C7.32826 18.1986 7.01241 18.1886 5.95878 18.1405C5.32465 18.1328 4.6966 18.0162 4.10202 17.7956C3.67078 17.6293 3.2791 17.3745 2.95228 17.0477C2.62545 16.7209 2.3707 16.3292 2.20439 15.898C1.98393 15.3034 1.86728 14.6753 1.85953 14.0412C1.81143 12.9867 1.80142 12.6708 1.80142 10C1.80142 7.32916 1.81143 7.01334 1.85953 5.9588C1.86728 5.32469 1.98393 4.69662 2.20439 4.10201C2.3707 3.67076 2.62545 3.27912 2.95228 2.95229C3.2791 2.62546 3.67078 2.37069 4.10202 2.20438C4.69663 1.98392 5.32467 1.86727 5.95878 1.85952C7.01332 1.81142 7.32916 1.80143 9.9991 1.80143ZM9.9991 0C7.28379 0 6.94253 0.0117978 5.87619 0.0598965C5.04685 0.0765781 4.22637 0.233686 3.44952 0.524548C2.78513 0.781444 2.1817 1.17433 1.67801 1.67803C1.17432 2.18172 0.781447 2.7851 0.524551 3.4495C0.233521 4.22661 0.0763868 5.04746 0.0598775 5.87712C0.0108712 6.94346 0 7.28469 0 10C0 12.7153 0.0117788 13.0565 0.0598775 14.1229C0.0763868 14.9525 0.233521 15.7734 0.524551 16.5505C0.781447 17.2149 1.17432 17.8183 1.67801 18.322C2.1817 18.8257 2.78513 19.2186 3.44952 19.4755C4.22637 19.7663 5.04685 19.9234 5.87619 19.9401C6.94253 19.9891 7.28379 20 9.9991 20C12.7144 20 13.0556 19.9882 14.1219 19.9401C14.9516 19.9235 15.7725 19.7664 16.5496 19.4755C17.214 19.2185 17.8173 18.8256 18.321 18.3219C18.8247 17.8182 19.2176 17.2149 19.4745 16.5505C19.7655 15.7734 19.9226 14.9525 19.9392 14.1229C19.9882 13.0565 19.9991 12.7153 19.9991 10C19.9991 7.28469 19.9873 6.94346 19.9392 5.87712C19.9226 5.04747 19.7655 4.22664 19.4745 3.4495C19.2176 2.78513 18.8247 2.18177 18.321 1.67809C17.8173 1.1744 17.214 0.781493 16.5496 0.524548C15.7725 0.233585 14.9516 0.0764758 14.1219 0.0598965C13.0556 0.0108903 12.7144 0 9.9991 0Z" fill="var(--fill-0, #F7F7F7)"/>
</svg>
