<svg width="18" height="18" viewBox="0 0 18 18" fill="none" xmlns="http://www.w3.org/2000/svg" preserveAspectRatio="xMidYMid meet" aria-hidden="true">
<path d="M14.6595 13.2453C14.269 12.8548 13.6358 12.8548 13.2453 13.2453C12.8548 13.6358 12.8548 14.269 13.2453 14.6595L13.9524 13.9524L14.6595 13.2453ZM16.2928 17.7071C16.6833 18.0976 17.3165 18.0976 17.707 17.7071C18.0976 17.3166 18.0976 16.6834 17.7071 16.2929L16.9999 17L16.2928 17.7071ZM13.9524 13.9524L13.2453 14.6595L16.2928 17.7071L16.9999 17L17.7071 16.2929L14.6595 13.2453L13.9524 13.9524ZM7.85713 14.7143V13.7143C4.62233 13.7143 2 11.0919 2 7.85713H1H0C0 12.1965 3.51776 15.7143 7.85713 15.7143V14.7143ZM14.7143 7.85713H13.7143C13.7143 11.0919 11.0919 13.7143 7.85713 13.7143V14.7143V15.7143C12.1965 15.7143 15.7143 12.1965 15.7143 7.85713H14.7143ZM7.85713 1V2C11.0919 2 13.7143 4.62233 13.7143 7.85713H14.7143H15.7143C15.7143 3.51776 12.1965 0 7.85713 0V1ZM7.85713 1V0C3.51776 0 0 3.51776 0 7.85713H1H2C2 4.62233 4.62233 2 7.85713 2V1Z" fill="white"/>
</svg>
