<svg width="19.999" height="19.999" viewBox="0 0 19.9969 19.9992" fill="none" xmlns="http://www.w3.org/2000/svg" aria-hidden="true" preserveAspectRatio="xMidYMid meet">
<g id="Shp_LinkedIn">
<path id="Path 707" d="M11.0399 8.44541C11.3175 8.13311 11.545 7.81597 11.8304 7.54718C12.2425 7.14444 12.7303 6.82795 13.2655 6.61614C13.8007 6.40434 14.3726 6.30144 14.9478 6.31344C15.6093 6.30288 16.269 6.38356 16.9085 6.55323C17.5792 6.73883 18.1869 7.1041 18.6663 7.60983C19.1457 8.11556 19.4788 8.74268 19.6298 9.42389C19.9009 10.4977 20.0229 11.604 19.9923 12.7113C19.9923 15.0492 19.9855 17.3861 19.9923 19.7231C19.9923 19.9416 19.9315 19.9996 19.7166 19.9977C18.5161 19.988 17.3156 19.988 16.1152 19.9977C15.9041 19.9977 15.8578 19.9339 15.8588 19.7337C15.8652 17.5099 15.8652 15.2861 15.8588 13.0623C15.8718 12.5039 15.8069 11.9464 15.666 11.406C15.5671 10.9523 15.3028 10.5521 14.9249 10.2837C14.547 10.0154 14.0828 9.89842 13.6233 9.95567C13.3213 9.94021 13.0194 9.98648 12.7357 10.0917C12.4521 10.1968 12.1928 10.3587 11.9734 10.5675C11.7541 10.7763 11.5793 11.0276 11.4598 11.3062C11.3403 11.5848 11.2784 11.8849 11.278 12.1882C11.2351 12.5343 11.2138 12.8827 11.2144 13.2315C11.2144 15.3944 11.2144 17.5573 11.2202 19.7202C11.2202 19.9358 11.1672 19.9996 10.9474 19.9977C9.73792 19.9867 8.52879 19.9867 7.31998 19.9977C7.12719 19.9977 7.07031 19.9464 7.07031 19.7502C7.07545 15.4675 7.07545 11.1852 7.07031 6.90324C7.07031 6.69149 7.13972 6.64218 7.33926 6.64411C8.48766 6.65249 9.63606 6.65249 10.7845 6.64411C10.9956 6.64411 11.0505 6.71083 11.0457 6.91194C11.0341 7.42342 11.0457 7.93586 11.0457 8.44734" fill="var(--fill-0, #F7F7F7)"/>
<path id="Path 708" d="M4.46634 13.3392C4.46634 15.4576 4.46633 17.5761 4.47115 19.6955C4.47115 19.9304 4.41331 20.002 4.1704 19.9991C2.97026 19.9865 1.77013 19.9894 0.56999 19.9991C0.377197 19.9991 0.31936 19.9527 0.320324 19.7525C0.326108 15.4628 0.326108 11.1734 0.320324 6.88433C0.320324 6.70642 0.362739 6.64358 0.550712 6.64454C1.7682 6.65228 2.98568 6.65518 4.20317 6.64454C4.43645 6.64454 4.46923 6.73349 4.46826 6.93461C4.46248 9.07076 4.46248 11.2066 4.46826 13.3421" fill="var(--fill-0, #F7F7F7)"/>
<path id="Path 709" d="M4.79477 2.39217C4.79725 2.86845 4.65866 3.33474 4.39657 3.73192C4.13449 4.12909 3.76072 4.43925 3.32265 4.62307C2.88459 4.80688 2.40197 4.85607 1.93599 4.7644C1.47002 4.67273 1.04168 4.44432 0.705298 4.10815C0.368917 3.77197 0.139647 3.34317 0.046559 2.87612C-0.0465287 2.40908 0.0007609 1.92482 0.182431 1.48477C0.364101 1.04471 0.671967 0.668686 1.06699 0.404368C1.46201 0.14005 1.92639 -0.000651451 2.40125 0.000108091C3.03323 0.00438456 3.63825 0.257506 4.08595 0.704935C4.53366 1.15236 4.78821 1.75829 4.79477 2.39217Z" fill="var(--fill-0, #F7F7F7)"/>
</g>
</svg>
