<svg viewBox="0 0 137.076 153.07" fill="none" xmlns="http://www.w3.org/2000/svg" preserveAspectRatio="xMidYMid meet" aria-hidden="true">
<g id="Group">
<path id="Vector" d="M39.1767 11.0043L64.7282 36.888C71.7661 43.9259 82.6161 33.0172 75.6173 26.0184L53.4675 3.16487C50.5155 0.134675 45.2958 2.81296 42.031 4.00549C39.1181 5.06118 36.2443 8.03276 39.1767 11.0043Z" fill="var(--fill-0, white)"/>
<path id="Vector_2" d="M123.943 51.9006C130.981 58.9385 141.812 48.0297 134.813 41.0114L100.914 7.56195C97.4533 4.14076 92.3509 2.9678 87.7176 1.77527C84.8242 1.03238 81.8331 0.38723 78.8616 0.0548861C77.454 -0.101511 76.0073 -0.00377958 75.284 1.4429C74.7757 2.45948 75.0103 3.74975 75.8119 4.55129L123.924 51.8811L123.943 51.9006Z" fill="var(--fill-0, white)"/>
<path id="Vector_3" d="M125.113 122.337L22.5949 19.8184C19.6624 16.8859 16.4758 19.3883 14.1494 21.6756C11.7448 24.0411 8.46048 27.4427 11.7253 30.688L114.244 133.206C117.118 136.08 120.148 133.852 122.396 131.642C124.84 129.238 128.515 125.719 125.133 122.337H125.113Z" fill="var(--fill-0, white)"/>
<path id="Vector_4" d="M97.8955 142.064L72.3441 116.18C65.3062 109.142 54.4561 120.051 61.4549 127.05L83.6047 149.903C86.5567 152.933 91.7764 150.255 95.0412 149.062C97.9541 148.007 100.828 145.035 97.8955 142.064Z" fill="var(--fill-0, white)"/>
<path id="Vector_5" d="M13.1326 101.169C6.09468 94.1312 -4.73586 105.04 2.26292 112.058L36.1621 145.508C39.6224 148.929 44.7248 150.102 49.3581 151.294C52.2514 152.037 55.2425 152.682 58.2141 153.015C59.6217 153.171 61.0683 153.073 61.7917 151.627C62.3 150.61 62.0654 149.32 61.2638 148.518L13.1521 101.189L13.1326 101.169Z" fill="var(--fill-0, white)"/>
</g>
</svg>
