<svg viewBox="0 0 17.712 17.712" fill="none" xmlns="http://www.w3.org/2000/svg" preserveAspectRatio="xMidYMid meet" aria-hidden="true">
<g id="Group">
<path id="Vector" d="M5.79485 13.4689V4.04605H9.58749C10.4672 4.04605 11.1709 4.30018 11.7183 4.82802C12.2657 5.33632 12.5394 6.0401 12.5394 6.90028C12.5394 7.31083 12.4808 7.68224 12.3439 8.03414C12.2071 8.36648 12.0312 8.65973 11.7966 8.89433C11.562 9.10938 11.3078 9.30491 11.0146 9.42221C10.7213 9.55906 10.4085 9.63725 10.0957 9.65679L12.6372 13.4689H11.2492L8.86416 9.75452H6.96778V13.4689H5.79485ZM6.96778 8.69882H9.43106C9.998 8.69882 10.4477 8.52291 10.7996 8.19057C11.1515 7.85823 11.3273 7.42811 11.3273 6.88072C11.3273 6.33332 11.1515 5.92277 10.7996 5.59043C10.4477 5.25809 9.998 5.10169 9.43106 5.10169H6.96778V8.69882Z" fill="var(--fill-0, white)"/>
<path id="Vector_2" d="M8.85605 17.712C3.96864 17.712 0 13.7434 0 8.85599C0 3.96858 3.96864 0 8.85605 0C13.7435 0 17.712 3.96858 17.712 8.85599C17.712 13.7434 13.7435 17.712 8.85605 17.712ZM8.85605 1.17299C4.61378 1.17299 1.17293 4.61372 1.17293 8.85599C1.17293 13.0983 4.61378 16.539 8.85605 16.539C13.0983 16.539 16.5391 13.0983 16.5391 8.85599C16.5391 4.61372 13.0983 1.17299 8.85605 1.17299Z" fill="var(--fill-0, white)"/>
</g>
</svg>
