<svg viewBox="0 0 787.97 73.4664" fill="none" xmlns="http://www.w3.org/2000/svg" preserveAspectRatio="xMidYMid meet" aria-hidden="true">
<g id="Group">
<path id="Vector" d="M28.6403 31.9051C19.3542 29.6764 11.3584 27.7606 11.3584 20.6249C11.3584 12.7855 20.1557 9.98991 28.4057 9.98991C33.86 9.98991 39.1971 10.8892 44.2409 12.6291C45.0229 12.9419 45.6289 13.0787 46.1372 13.0787C49.0892 13.0787 50.9269 10.4982 50.9269 8.09359C50.9269 5.68898 49.7539 4.10543 47.6035 3.36255C41.6017 1.13388 34.7984 0 27.4086 0C8.95373 0 0.703789 10.6937 0.703789 21.3092C0.703789 35.7955 14.4472 39.3144 26.568 42.4228C35.5217 44.7101 43.2439 46.6846 43.2439 52.5495C43.2439 59.7633 37.77 63.2823 26.5093 63.2823C19.667 63.2823 13.1374 61.9138 7.09654 59.2355C6.35365 58.9227 5.64985 58.7664 4.88742 58.7664C1.83767 58.7664 0 61.2882 0 63.7515C0 65.7847 1.38801 67.8178 3.28433 68.5607C10.7914 71.7864 18.9045 73.4286 27.4282 73.4286C42.9702 73.4286 53.8398 65.0809 53.8398 53.1165C53.8398 37.8873 40.4678 34.6811 28.6793 31.866L28.6403 31.9051Z" fill="var(--fill-0, white)"/>
<path id="Vector_2" d="M130.079 0.506947C127.166 0.506947 124.781 2.93113 124.781 5.90267V45.7449C124.781 58.0025 115.006 63.5742 105.935 63.5742C96.8642 63.5742 87.0894 57.983 87.0894 45.7449V5.90267C87.0894 2.97022 84.6261 0.506947 81.6937 0.506947C78.7612 0.506947 76.4153 2.93113 76.4153 5.90267V45.4516C76.4153 63.8478 91.2535 73.4663 105.935 73.4663C120.617 73.4663 135.455 63.8478 135.455 45.4516V5.90267C135.455 2.97022 132.992 0.506947 130.06 0.506947H130.079Z" fill="var(--fill-0, white)"/>
<path id="Vector_3" d="M210.996 1.01818H161.145C158.349 1.01818 156.159 3.24685 156.159 6.1011C156.159 8.95535 158.31 11.0862 161.145 11.0862H180.792V67.6826C180.792 70.5955 183.157 72.9805 186.09 72.9805C189.022 72.9805 191.466 70.615 191.466 67.6826V11.0862H211.016C213.87 11.0862 216.099 8.89671 216.099 6.1011C216.099 3.3055 213.87 1.01818 211.016 1.01818H210.996Z" fill="var(--fill-0, white)"/>
<path id="Vector_4" d="M289.338 0.506947C286.425 0.506947 284.059 2.93113 284.059 5.90267V31.7473H247.677V5.90267C247.677 2.97022 245.214 0.506947 242.282 0.506947C239.349 0.506947 237.003 2.93113 237.003 5.90267V67.6796C237.003 70.5925 239.369 72.9776 242.282 72.9776C245.194 72.9776 247.677 70.6121 247.677 67.6796V41.835H284.059V67.6796C284.059 70.5925 286.425 72.9776 289.338 72.9776C292.25 72.9776 294.733 70.6121 294.733 67.6796V5.90267C294.733 2.97022 292.27 0.506947 289.338 0.506947Z" fill="var(--fill-0, white)"/>
<path id="Vector_5" d="M369.429 11.0865C372.283 11.0865 374.512 8.89693 374.512 6.10132C374.512 3.30572 372.283 1.0184 369.429 1.0184H329.274C326.361 1.0184 323.996 3.44256 323.996 6.39456V67.1745C323.996 70.0874 326.361 72.4724 329.274 72.4724H369.429C372.283 72.4724 374.512 70.2829 374.512 67.4873C374.512 64.6917 372.283 62.4043 369.429 62.4043H334.67V41.7403H365.832C368.686 41.7403 370.915 39.5508 370.915 36.7552C370.915 33.9596 368.686 31.6723 365.832 31.6723H334.67V11.106H369.429V11.0865Z" fill="var(--fill-0, white)"/>
<path id="Vector_6" d="M454.7 22.1319C454.7 8.72088 444.495 1.01833 426.685 1.01833H403.363C400.45 1.01833 398.084 3.44249 398.084 6.39449V67.6827C398.084 70.5956 400.45 72.9807 403.363 72.9807C406.276 72.9807 408.739 70.6152 408.739 67.6827V45.2397H428.679C441.739 45.2397 443.42 55.6401 443.42 64.6916V67.7022C443.42 70.8693 445.59 73.0002 448.816 73.0002C451.728 73.0002 454.094 70.6347 454.094 67.7022V63.0885C454.094 58.6312 453.253 44.5164 443.068 40.1959C450.301 36.9311 454.7 30.1669 454.7 22.1319ZM444.026 22.8162C444.026 30.4797 437.32 35.0543 426.079 35.0543H408.739V11.1841H425.571C441.915 11.1841 444.006 17.4009 444.006 22.8162H444.026Z" fill="var(--fill-0, white)"/>
<path id="Vector_7" d="M523.922 61.7953H491.958V5.90282C491.958 2.97037 489.495 0.507094 486.562 0.507094C483.63 0.507094 481.284 2.93127 481.284 5.90282V65.3729C481.284 69.2828 484.47 72.4694 488.38 72.4694H523.922C526.893 72.4694 529.298 70.1039 529.298 67.1715C529.298 64.239 526.834 61.7953 523.922 61.7953Z" fill="var(--fill-0, white)"/>
<path id="Vector_8" d="M587.113 5.10338C585.881 2.22958 583.438 0.528765 580.583 0.528765H579.586C576.732 0.528765 574.288 2.24913 573.057 5.10338L547.525 65.375C547.154 66.2547 546.958 67.0172 546.958 67.6819C546.958 70.7512 549.187 72.9798 552.236 72.9798C554.465 72.9798 556.342 71.7482 557.261 69.6955L563.556 54.5445H596.556L602.87 69.6955C603.769 71.7482 605.666 72.9603 607.894 72.9603C610.964 72.9603 613.173 70.7316 613.173 67.6623C613.173 66.9976 612.977 66.2157 612.606 65.3555L587.074 5.08381L587.113 5.10338ZM592.431 44.6719H567.739L580.075 14.9564L592.431 44.6719Z" fill="var(--fill-0, white)"/>
<path id="Vector_9" d="M691.765 0.50728C688.852 0.50728 686.467 2.93146 686.467 5.90301V57.475L649.323 3.83075C647.661 1.69983 645.491 0.526849 643.203 0.526849H641.894C637.886 0.526849 634.602 3.85029 634.602 7.91662V67.6995C634.602 70.6124 636.967 72.9975 639.88 72.9975C642.793 72.9975 645.276 70.6319 645.276 67.6995V16.0297L682.616 69.9672C684.062 71.8831 686.213 72.9779 688.559 72.9779H689.771C693.837 72.9779 697.16 69.7131 697.16 65.6859V5.90301C697.16 2.97056 694.697 0.50728 691.784 0.50728H691.765Z" fill="var(--fill-0, white)"/>
<path id="Vector_10" d="M779.075 12.4159C772.487 4.96752 763.083 1.01851 751.842 1.01851H731.726C728.813 1.01851 726.447 3.44267 726.447 6.39467V67.1746C726.447 70.0875 728.813 72.4725 731.726 72.4725H751.842C763.064 72.4725 772.487 68.5235 779.075 61.036C784.725 54.6237 787.97 45.7677 787.97 36.7357C787.97 27.7038 784.725 18.8087 779.075 12.3964V12.4159ZM777.394 36.7357C777.394 52.0822 766.68 62.3849 750.747 62.3849H737.121V11.0866H750.747C766.7 11.0866 777.394 21.3892 777.394 36.7357Z" fill="var(--fill-0, white)"/>
</g>
</svg>
