<svg viewBox="0 0 150.209 66.1241" fill="none" xmlns="http://www.w3.org/2000/svg" preserveAspectRatio="xMidYMid meet" aria-hidden="true">
<g id="Group">
<path id="Vector" d="M96.4157 0.198008C93.366 -0.0756871 90.6877 -0.0561374 87.2665 0.198008C85.722 0.315306 84.3536 1.03865 83.7671 2.46578C83.161 3.91245 83.4934 5.55465 84.6272 6.64943L141.243 61.4862C142.045 62.2487 142.631 62.5224 144.215 62.5224C146.091 62.5224 146.991 61.3103 147.44 60.0982C148.476 57.3417 149.356 54.4874 150.06 51.6332C150.471 49.9519 150.021 48.1534 148.887 46.824C148.77 46.6871 148.633 46.5503 148.496 46.4134L102.848 3.07181C101.127 1.35144 98.8008 0.413055 96.4157 0.198008Z" fill="var(--fill-0, white)" fill-opacity="0.5"/>
<path id="Vector_2" d="M53.7937 65.926C56.8435 66.1997 59.5218 66.1802 62.943 65.926C64.4874 65.8283 65.8559 65.0854 66.4424 63.6387C67.0484 62.1921 66.7161 60.5499 65.5822 59.4551L8.96633 4.61828C8.16479 3.85584 7.57833 3.60172 5.9948 3.60172C4.11803 3.60172 3.21873 4.81378 2.76909 6.02586C1.73296 8.78236 0.85323 11.6366 0.149442 14.4908C-0.261101 16.1721 0.188523 17.9707 1.3224 19.3001C1.4397 19.4369 1.57657 19.5933 1.71342 19.7106L47.3619 63.0522C49.0822 64.7726 51.4087 65.711 53.7937 65.926Z" fill="var(--fill-0, white)" fill-opacity="0.5"/>
</g>
</svg>
