<svg preserveAspectRatio="none" width="100%" height="100%" overflow="visible" style="display: block;" viewBox="0 0 2.39949 2.39949" fill="none" xmlns="http://www.w3.org/2000/svg">
<path id="Path 701" d="M2.39949 1.19974C2.39949 1.43703 2.32909 1.66899 2.19726 1.86629C2.06543 2.06358 1.87809 2.21736 1.65886 2.30817C1.43964 2.39897 1.19843 2.42273 0.965703 2.37644C0.732975 2.33014 0.51915 2.21588 0.351363 2.04809C0.183575 1.88031 0.0693538 1.66653 0.0230613 1.4338C-0.0232311 1.20107 0.000496901 0.959845 0.0913028 0.74062C0.182109 0.521396 0.335914 0.334024 0.533211 0.202194C0.730508 0.0703641 0.962441 0 1.19973 0C1.51792 0 1.8231 0.1264 2.04809 0.351396C2.27309 0.576392 2.39949 0.881552 2.39949 1.19974Z" fill="var(--fill-0, #F7F7F7)"/>
</svg>
