<svg preserveAspectRatio="none" width="100%" height="100%" overflow="visible" style="display: block;" viewBox="0 0 10.2695 10.2695" fill="none" xmlns="http://www.w3.org/2000/svg">
<path id="Path 700" d="M5.13475 0C4.11919 0 3.12647 0.301149 2.28206 0.865364C1.43766 1.42958 0.779493 2.23152 0.390855 3.16978C0.00221655 4.10803 -0.0994578 5.14046 0.0986683 6.13651C0.296794 7.13256 0.785824 8.04749 1.50393 8.7656C2.22204 9.48371 3.13696 9.97275 4.133 10.1709C5.12905 10.369 6.16148 10.2673 7.09974 9.87868C8.03799 9.49004 8.83995 8.8319 9.40416 7.98749C9.96838 7.14309 10.2695 6.15033 10.2695 5.13477C10.2695 3.77294 9.72857 2.4669 8.76562 1.50394C7.80266 0.540985 6.49657 0 5.13475 0ZM5.13475 8.4681C4.47548 8.4681 3.83103 8.27261 3.28287 7.90634C2.7347 7.54006 2.30748 7.01947 2.05518 6.41038C1.80289 5.80129 1.73685 5.13107 1.86547 4.48447C1.99409 3.83786 2.31158 3.24392 2.77776 2.77775C3.24393 2.31157 3.83786 1.9941 4.48446 1.86548C5.13106 1.73687 5.80131 1.80288 6.4104 2.05517C7.01948 2.30746 7.54007 2.73471 7.90634 3.28287C8.27261 3.83103 8.46811 4.4755 8.46811 5.13477C8.46811 5.57251 8.38188 6.00596 8.21437 6.41038C8.04685 6.8148 7.80132 7.18226 7.49179 7.49179C7.18226 7.80132 6.81482 8.04685 6.4104 8.21437C6.00598 8.38188 5.57249 8.4681 5.13475 8.4681Z" fill="var(--fill-0, #F7F7F7)"/>
</svg>
